{
  "extensionsUsed": [
    "KHR_materials_unlit"
  ],
  "asset": {
    "generator": "UniGLTF-1.27",
    "version": "2.0"
  },
  "buffers": [
    {
      "uri": "Phoenix_data.bin",
      "byteLength": 435636
    }
  ],
  "bufferViews": [
    {
      "buffer": 0,
      "byteOffset": 0,
      "byteLength": 68508,
      "target": 34962
    },
    {
      "buffer": 0,
      "byteOffset": 68508,
      "byteLength": 68508,
      "target": 34962
    },
    {
      "buffer": 0,
      "byteOffset": 137016,
      "byteLength": 45672,
      "target": 34962
    },
    {
      "buffer": 0,
      "byteOffset": 182688,
      "byteLength": 91344,
      "target": 34962
    },
    {
      "buffer": 0,
      "byteOffset": 274032,
      "byteLength": 91344,
      "target": 34962
    },
    {
      "buffer": 0,
      "byteOffset": 365376,
      "byteLength": 45672,
      "target": 34962
    },
    {
      "buffer": 0,
      "byteOffset": 411048,
      "byteLength": 23304,
      "target": 34963
    },
    {
      "buffer": 0,
      "byteOffset": 434352,
      "byteLength": 1284,
      "target": 34963
    }
  ],
  "accessors": [
    {
      "bufferView": 0,
      "byteOffset": 0,
      "type": "VEC3",
      "componentType": 5126,
      "count": 5709,
      "max": [
        0.00102324213,
        0.00131764717,
        0.000125885155
      ],
      "min": [
        -0.00102309242,
        -0.0005767558,
        -0.000194186534
      ],
      "normalized": false
    },
    {
      "bufferView": 1,
      "byteOffset": 0,
      "type": "VEC3",
      "componentType": 5126,
      "count": 5709,
      "normalized": false
    },
    {
      "bufferView": 2,
      "byteOffset": 0,
      "type": "VEC2",
      "componentType": 5126,
      "count": 5709,
      "normalized": false
    },
    {
      "bufferView": 3,
      "byteOffset": 0,
      "type": "VEC4",
      "componentType": 5126,
      "count": 5709,
      "normalized": false
    },
    {
      "bufferView": 4,
      "byteOffset": 0,
      "type": "VEC4",
      "componentType": 5126,
      "count": 5709,
      "normalized": false
    },
    {
      "bufferView": 5,
      "byteOffset": 0,
      "type": "VEC4",
      "componentType": 5123,
      "count": 5709,
      "normalized": false
    },
    {
      "bufferView": 6,
      "byteOffset": 0,
      "type": "SCALAR",
      "componentType": 5125,
      "count": 5826,
      "normalized": false
    },
    {
      "bufferView": 7,
      "byteOffset": 0,
      "type": "SCALAR",
      "componentType": 5125,
      "count": 321,
      "normalized": false
    }
  ],
  "images": [
    {
      "name": "Phoenix_01_Tex",
      "uri": "Phoenix_img0.png"
    },
    {
      "name": "Stylized Low Poly Phoenix 01.Phoenix_hover_flight.posTex",
      "uri": "Phoenix_img1.png"
    },
    {
      "name": "Stylized Low Poly Phoenix 01.Phoenix_hover_flight.normTex",
      "uri": "Phoenix_img2.png"
    }
  ],
  "samplers": [
    {
      "magFilter": 9729,
      "minFilter": 9729,
      "wrapS": 10497,
      "wrapT": 10497
    },
    {
      "magFilter": 9729,
      "minFilter": 9729,
      "wrapS": 10497,
      "wrapT": 10497
    },
    {
      "magFilter": 9729,
      "minFilter": 9729,
      "wrapS": 10497,
      "wrapT": 10497
    }
  ],
  "textures": [
    {
      "sampler": 0,
      "source": 0
    },
    {
      "sampler": 1,
      "source": 1
    },
    {
      "sampler": 2,
      "source": 2
    }
  ],
  "materials": [
    {
      "name": "Stylized Low Poly Phoenix 01.Phoenix_hover_flight.animTex",
      "pbrMetallicRoughness": {
        "baseColorTexture": {
          "index": 0,
          "texCoord": 0
        },
        "metallicFactor": 1,
        "roughnessFactor": 1
      },
      "doubleSided": false,
      "alphaMode": "OPAQUE"
    }
  ],
  "meshes": [
    {
      "name": "Bird_Mesh",
      "primitives": [
        {
          "mode": 4,
          "indices": 6,
          "attributes": {
            "POSITION": 0,
            "NORMAL": 1,
            "TEXCOORD_0": 2,
            "COLOR_0": 3,
            "JOINTS_0": 5,
            "WEIGHTS_0": 4
          },
          "material": 0
        }
      ]
    }
  ],
  "nodes": [
    {
      "name": "Phoenix(Clone)",
      "translation": [
        0,
        0,
        0
      ],
      "rotation": [
        0,
        0,
        0,
        1
      ],
      "scale": [
        1,
        1,
        1
      ],
      "mesh": 0
    }
  ],
  "scenes": [
    {
      "nodes": [
        0
      ]
    }
  ],
  "scene": 0
}